<?xml version="1.0" encoding="UTF-8"?>
<svg id="Layer_1" xmlns="http://www.w3.org/2000/svg" version="1.1" viewBox="0 0 1024 1024"><defs><style>.st0 {fill: #fff;}</style></defs><path class="st0" d="M-.5,0v1024.5h1024.5V0H-.5ZM16,95.2c0-43.5,35.3-78.8,78.8-78.8h322.4c43.5,0,78.8,35.3,78.8,78.8v322.4c0,43.5-35.3,78.8-78.8,78.8H94.8c-43.5,0-78.8-35.3-78.8-78.8V95.2ZM1008,929.3c0,43.5-35.3,78.8-78.8,78.8h-322.4c-43.5,0-78.8-35.3-78.8-78.8v-322.4c0-43.5,35.3-78.8,78.8-78.8h322.4c43.5,0,78.8,35.3,78.8,78.8v322.4ZM1008,417.6c0,43.5-35.3,78.8-78.8,78.8h-323.2c-60.8,0-110,49.2-110,110v323c0,43.5-35.3,78.8-78.8,78.8H94.8c-43.5,0-78.8-35.3-78.8-78.8v-322.4c0-43.5,35.3-78.8,78.8-78.8h323.2c60.8,0,110-49.2,110-110V95.2c0-43.5,35.3-78.8,78.8-78.8h322.4c43.5,0,78.8,35.3,78.8,78.8v322.4Z"/></svg>